<svg width="8" height="5" viewBox="0 0 8 5" fill="none" xmlns="http://www.w3.org/2000/svg">
<path d="M0.275217 1.275C0.0418844 1.04167 -0.0122819 0.770833 0.112718 0.462499C0.237718 0.154166 0.466885 -3.27234e-07 0.800218 -3.12663e-07L7.20022 -3.29106e-08C7.53355 -1.83402e-08 7.76272 0.154166 7.88772 0.4625C8.01272 0.770833 7.95855 1.04167 7.72522 1.275L4.52522 4.475C4.44188 4.55833 4.35855 4.61667 4.27522 4.65C4.19188 4.68333 4.10022 4.7 4.00022 4.7C3.90022 4.7 3.80855 4.68333 3.72522 4.65C3.64188 4.61667 3.55855 4.55833 3.47522 4.475L0.275217 1.275Z" fill="#014745"/>
</svg>
