<svg width="24" height="25" viewBox="0 0 24 25" fill="none" xmlns="http://www.w3.org/2000/svg">
<path d="M12.2 12.3L10.79 13.71C10.01 14.49 10.01 15.76 10.79 16.54C11.57 17.32 12.84 17.32 13.62 16.54L15.84 14.32C17.4 12.76 17.4 10.23 15.84 8.65999C14.28 7.09999 11.75 7.09999 10.18 8.65999L7.76 11.08C6.42 12.42 6.42 14.59 7.76 15.93" stroke="#557BE9" stroke-width="1.5" stroke-linecap="round" stroke-linejoin="round"/>
<path d="M9 22.5H15C20 22.5 22 20.5 22 15.5V9.5C22 4.5 20 2.5 15 2.5H9C4 2.5 2 4.5 2 9.5V15.5C2 20.5 4 22.5 9 22.5Z" stroke="#557BE9" stroke-width="1.5" stroke-linecap="round" stroke-linejoin="round"/>
</svg>
