<svg width="24" height="25" viewBox="0 0 24 25" fill="none" xmlns="http://www.w3.org/2000/svg">
<path d="M14.3196 19.986C14.3196 20.596 13.9195 21.396 13.4095 21.706L11.9996 22.616C10.6896 23.426 8.86957 22.516 8.86957 20.896V15.546C8.86957 14.836 8.46957 13.926 8.05957 13.426L4.21954 9.38602C3.70954 8.87602 3.30957 7.97603 3.30957 7.36603V5.04602C3.30957 3.83602 4.21959 2.92603 5.32959 2.92603H18.6696C19.7796 2.92603 20.6896 3.83601 20.6896 4.94601V7.16602C20.6896 7.97602 20.1796 8.98602 19.6796 9.48602" stroke="#014745" stroke-width="1.5" stroke-miterlimit="10" stroke-linecap="round" stroke-linejoin="round"/>
<path d="M16.0701 17.4361C17.8374 17.4361 19.2701 16.0035 19.2701 14.2361C19.2701 12.4688 17.8374 11.0361 16.0701 11.0361C14.3028 11.0361 12.8701 12.4688 12.8701 14.2361C12.8701 16.0035 14.3028 17.4361 16.0701 17.4361Z" stroke="#014745" stroke-width="1.5" stroke-linecap="round" stroke-linejoin="round"/>
<path d="M19.8701 18.0361L18.8701 17.0361" stroke="#014745" stroke-width="1.5" stroke-linecap="round" stroke-linejoin="round"/>
</svg>
