<svg width="24" height="24" viewBox="0 0 24 24" fill="none" xmlns="http://www.w3.org/2000/svg">
<path d="M6 17.5V18H6.5H20.5H21V17.5V3.5V3H20.5H6.5H6V3.5V17.5ZM3 20.5V21H3.5H18.25C18.346 21 18.3942 21.0263 18.4339 21.0661C18.4737 21.1058 18.5 21.154 18.5 21.25C18.5 21.346 18.4737 21.3942 18.4339 21.4339C18.3942 21.4737 18.346 21.5 18.25 21.5H3.5C3.24128 21.5 3.0161 21.409 2.80355 21.1964C2.59101 20.9839 2.5 20.7587 2.5 20.5V5.75C2.5 5.65402 2.52626 5.60584 2.56605 5.56605C2.60584 5.52626 2.65402 5.5 2.75 5.5C2.84598 5.5 2.89416 5.52626 2.93395 5.56605C2.97374 5.60584 3 5.65402 3 5.75V20.5ZM6.5 18.5C6.24128 18.5 6.0161 18.409 5.80355 18.1964C5.59101 17.9839 5.5 17.7587 5.5 17.5V3.5C5.5 3.24128 5.59101 3.0161 5.80355 2.80355C6.0161 2.59101 6.24128 2.5 6.5 2.5H20.5C20.7587 2.5 20.9839 2.59101 21.1964 2.80355C21.409 3.0161 21.5 3.24128 21.5 3.5V17.5C21.5 17.7587 21.409 17.9839 21.1964 18.1964C20.9839 18.409 20.7587 18.5 20.5 18.5H6.5Z" fill="#014745" stroke="#014745"/>
<text x="8" y="13" fill="#014745" font-family="Monospace, sans-serif" font-size="7" font-weight="bold">PDF</text>
</svg>
