<svg width="25" height="24" viewBox="0 0 25 24" fill="none" xmlns="http://www.w3.org/2000/svg">
<path fill-rule="evenodd" clip-rule="evenodd" d="M4.56176 7.66957C5.98796 4.24494 9.32961 2.01028 13.0393 2.00037C17.0375 1.97932 20.5926 4.5403 21.839 8.33934C23.0853 12.1384 21.7381 16.3076 18.5044 18.6591C15.2707 21.0105 10.8893 21.007 7.65934 18.6504L4.77934 21.5304C4.48652 21.8228 4.01216 21.8228 3.71934 21.5304C3.42689 21.2376 3.42689 20.7632 3.71934 20.4704L6.50934 17.6804C3.90324 15.0402 3.13556 11.0942 4.56176 7.66957ZM5.89891 14.1693C7.09638 17.055 9.91508 18.9344 13.0393 18.9304V18.8904C17.2796 18.885 20.7219 15.4606 20.7493 11.2204C20.7534 8.09611 18.874 5.27742 15.9883 4.07994C13.1026 2.88247 9.77967 3.54232 7.57048 5.75152C5.36129 7.96071 4.70144 11.2836 5.89891 14.1693Z" fill="#2A2A2A"/>
</svg>
